<?xml version="1.0" encoding="UTF-8" standalone="no"?>
<!-- Created with Inkscape (http://www.inkscape.org/) -->
<svg width="210mm" height="297mm" viewBox="0 0 210 297" version="1.1" id="svg1" xml:space="preserve" inkscape:version="1.3.2 (091e20e, 2023-11-25, custom)" sodipodi:docname="logo.svg" xmlns:inkscape="http://www.inkscape.org/namespaces/inkscape" xmlns:sodipodi="http://sodipodi.sourceforge.net/DTD/sodipodi-0.dtd" xmlns="http://www.w3.org/2000/svg" xmlns:svg="http://www.w3.org/2000/svg">
	<sodipodi:namedview id="namedview1" pagecolor="#ffffff" bordercolor="#000000" borderopacity="0.25" inkscape:showpageshadow="2" inkscape:pageopacity="0.0" inkscape:pagecheckerboard="0" inkscape:deskcolor="#d1d1d1" inkscape:document-units="mm" inkscape:zoom="0.72426347" inkscape:cx="396.26464" inkscape:cy="450.8028" inkscape:window-width="1920" inkscape:window-height="1009" inkscape:window-x="-8" inkscape:window-y="-8" inkscape:window-maximized="1" inkscape:current-layer="layer1"/>
	<defs id="defs1"/>
	<g inkscape:label="Layer 1" inkscape:groupmode="layer" id="layer1">
		<path style="fill:#000000" d="m 79.857095,148.76467 -0.773397,-0.7734 v -11.52972 -11.52973 h -1.288646 c -3.671648,0 -11.19092,-1.96434 -15.90927,-4.15614 -8.08913,-3.75762 -16.263083,-11.108 -20.41152,-18.35494 l -0.887437,-1.55027 -12.382409,-0.008 c -13.542384,-0.009 -13.55136,-0.01 -14.186197,-1.542216 -0.423669,-1.02282 -0.125899,-2.05982 0.775849,-2.70192 0.710237,-0.50573 1.184358,-0.52623 12.169721,-0.52623 10.786185,0 11.419414,-0.0261 11.230668,-0.46302 -1.205579,-2.79071 -2.659332,-8.19175 -3.216234,-11.94908 l -0.212231,-1.4319 -10.583333,0.0315 c -5.820833,0.0173 -11.135629,0.0366 -11.810658,0.0428 -1.189409,0.011 -1.232673,0.0399 -1.400448,0.93421 -0.166745,0.88883 -0.769404,1.45842 -1.5430774,1.45842 -0.466934,0 -4.957274,-4.31052 -4.957274,-4.75876 0,-0.44551 4.184466,-4.71507 4.818238,-4.91622 0.274636,-0.0872 0.8029674,0.0405 1.1740704,0.28362 0.552206,0.36182 0.655594,0.60604 0.56934,1.34486 l -0.105392,0.90275 h 11.822263 11.822262 l 0.159537,-0.59531 c 0.08775,-0.32742 0.161164,-1.20856 0.163151,-1.95808 0.0045,-1.693913 0.872064,-6.771279 1.564222,-9.154417 0.477275,-1.643287 0.483215,-1.786412 0.07436,-1.791879 -0.24439,-0.0033 -4.999328,-6.46e-4 -10.566529,0.0058 -8.591196,0.01 -10.24077,-0.04956 -10.906219,-0.393673 -1.53192,-0.792186 -1.776382,-2.374424 -0.555491,-3.595315 l 0.773398,-0.773398 h 11.737522 11.737522 l 0.878961,-1.785937 c 2.148539,-4.365565 5.870435,-9.336143 9.856275,-13.16302 7.329932,-7.0376 15.889802,-11.122491 26.195229,-12.500734 l 3.38491,-0.452696 0.07358,-12.397919 0.07358,-12.3979177 0.742358,-0.638387 c 1.227875,-1.055903 2.803845,-0.67617 3.592299,0.865574 0.204858,0.400579 0.295551,4.2657297 0.295551,12.5958597 v 12.017941 l 1.800559,0.167344 c 10.06019,0.934996 19.348932,5.069322 27.012832,12.023151 3.92428,3.560693 8.00761,8.901344 10.31596,13.492428 l 1.09322,2.174313 h 11.00594 11.00594 l -0.17305,-0.689474 c -0.22435,-0.893885 0.45565,-1.956359 1.2521,-1.956359 0.77533,0 4.949,4.149626 4.949,4.920493 0,0.330002 -0.85823,1.394079 -2.18282,2.706378 -1.65515,1.6398 -2.35644,2.162579 -2.9011,2.162637 -0.7996,8.4e-5 -1.26608,-0.627132 -1.26608,-1.702323 v -0.678852 l -9.06198,-0.02804 c -8.28969,-0.02565 -10.56564,4.18e-4 -10.69664,0.1225 -0.0259,0.02417 0.23511,1.130715 0.58011,2.458984 0.76047,2.927923 1.45142,7.427972 1.45142,9.452907 v 1.48739 h 11.62646 11.62645 l 0.0814,-1.11956 c 0.0692,-0.95244 0.19096,-1.1579 0.81555,-1.37631 0.68724,-0.24033 0.87029,-0.12221 2.86262,1.84717 1.17064,1.15715 2.24697,2.3189 2.39185,2.58165 0.21928,0.3977 -0.10127,0.85138 -1.91322,2.70773 -1.19715,1.22649 -2.39101,2.29803 -2.65302,2.38119 -0.8528,0.27067 -1.55471,-0.3355 -1.55471,-1.34263 v -0.91674 l -1.38907,-0.0101 c -24.19952,-0.1761 -22.15885,-0.30312 -22.15885,1.37924 0,1.86217 -1.82805,9.01244 -3.08368,12.06152 -0.10956,0.26605 2.00159,0.31975 10.4028,0.26459 l 10.54026,-0.0692 -0.0832,-0.71316 c -0.12409,-1.06378 0.37608,-1.80136 1.21697,-1.79466 0.96317,0.008 5.08392,3.95527 5.08392,4.87028 0,0.42007 -0.67471,1.27546 -2.12826,2.698167 -1.17054,1.14571 -2.36136,2.19069 -2.64626,2.32217 -0.75686,0.3493 -1.57548,-0.48361 -1.57548,-1.60298 v -0.88503 H 133.85927 122.2244 l -0.43613,0.85989 c -0.70505,1.39012 -3.89803,5.74089 -5.64386,7.69035 -6.19365,6.91603 -13.866,11.69895 -22.525782,14.0425 -2.84991,0.77125 -6.99207,1.48171 -8.64792,1.48327 l -1.124479,0.001 v 11.52973 11.52972 l -0.773398,0.7734 c -0.527843,0.52784 -1.038338,0.7734 -1.607852,0.7734 -0.569515,0 -1.08001,-0.24556 -1.607853,-0.7734 z m 6.370352,-28.18215 c 9.75476,-1.16712 18.067273,-5.21263 25.014143,-12.1738 6.02551,-6.03792 10.0061,-13.334156 11.81665,-21.659336 0.5044,-2.31934 0.58705,-3.50834 0.59196,-8.51652 0.005,-5.079723 -0.0698,-6.157697 -0.58729,-8.466664 C 120.11451,56.611131 112.0114,46.034348 100.42809,40.221574 93.697637,36.844072 87.566247,35.553568 79.648208,35.847923 68.377153,36.266926 58.657126,40.644028 50.879152,48.803142 41.281378,58.871231 37.090812,72.798146 39.65853,86.093724 c 2.177844,11.27683 8.864913,21.261196 18.655377,27.854096 2.390304,1.60963 7.027981,3.84506 10.054166,4.84627 5.831235,1.92924 11.738381,2.52078 17.859374,1.78843 z M 78.554531,99.761104 c -4.569366,-0.55796 -9.208936,-2.83633 -12.589564,-6.1824 -1.176188,-1.16417 -2.506403,-2.66048 -2.956033,-3.32513 -4.58751,-6.78134 -5.276113,-15.05285 -1.853073,-22.259111 3.460607,-7.285352 10.183458,-12.080283 18.068506,-12.88698 9.48714,-0.970603 18.2686,4.09526 22.469783,12.962409 2.7414,5.786091 2.69113,13.428542 -0.12528,19.047142 -1.802083,3.59507 -5.132063,7.33783 -8.373283,9.41121 -4.11372,2.63151 -9.616008,3.846456 -14.641056,3.23286 z m 8.069796,-2.7274 c 2.24844,-0.60334 5.56077,-2.27101 7.33473,-3.69285 3.1474,-2.52266 5.89174,-6.70009 6.970223,-10.61007 0.24084,-0.87313 0.49817,-2.965 0.57185,-4.6486 0.15865,-3.62501 -0.3897,-6.312795 -1.926463,-9.442722 -2.55881,-5.211539 -6.93595,-8.932816 -12.55347,-10.672492 -2.845861,-0.881328 -8.208929,-0.89886 -11.191658,-0.03659 -3.52602,1.019334 -5.64183,2.27265 -8.495525,5.032391 -3.046352,2.946055 -5.107856,6.851474 -5.843567,11.070353 -0.50026,2.868705 -0.499265,3.948985 0.0063,6.848165 0.750038,4.30103 2.643648,7.88674 5.802462,10.98745 2.962782,2.90828 5.926645,4.52544 9.932396,5.41936 2.156269,0.48119 7.156082,0.34577 9.392712,-0.2544 z M 67.706615,85.195524 c -1.244777,-0.34606 -2.217412,-1.32109 -2.951585,-2.95887 -0.524512,-1.17007 -0.609535,-1.79724 -0.614513,-4.53295 -0.0051,-2.79475 0.08568,-3.454039 0.757873,-5.504857 2.177239,-6.642641 8.243456,-11.550568 14.839607,-12.006116 4.465874,-0.308426 6.75403,1.372865 6.75403,4.962718 0,4.250191 -3.053164,10.188125 -7.540409,14.664915 -4.107755,4.09819 -8.421395,6.16013 -11.245003,5.37516 z M 20.405072,137.48452 c -0.584104,-0.40912 -0.588038,-0.46196 -0.588038,-7.89886 v -7.48699 l 0.638908,-0.68939 c 0.351399,-0.37917 0.933888,-0.76343 1.29442,-0.85392 0.680358,-0.17076 2.091824,0.39865 2.481665,1.00114 0.118369,0.18294 0.274747,2.1074 0.347507,4.27659 l 0.132292,3.94399 7.057367,-6.92055 c 5.999475,-5.88316 7.174033,-6.92054 7.835672,-6.92054 1.717086,0 2.871514,1.88102 2.058504,3.35412 -0.226724,0.41081 -3.205346,3.60442 -6.619159,7.09692 l -6.206933,6.35 3.31895,0.13229 c 3.236653,0.12901 3.334759,0.1507 3.956545,0.87465 0.695494,0.80977 0.837106,2.1581 0.298451,2.84166 -1.00541,1.27586 -1.23244,1.31077 -8.524397,1.31077 -5.811132,0 -6.986061,-0.0647 -7.481754,-0.41188 z M 125.18178,45.644326 c -0.47682,-0.191844 -1.11891,-1.52539 -1.11891,-2.323817 0,-0.520536 1.304,-2.02278 5.69571,-6.561576 l 5.69572,-5.88648 -2.23721,-0.132292 c -1.8215,-0.10771 -2.36364,-0.242585 -2.91759,-0.725854 -0.9189,-0.801645 -0.93297,-2.220618 -0.031,-3.122631 l 0.64943,-0.649432 h 6.20143 c 5.41081,0 6.2219,0.05336 6.36202,0.418515 0.0883,0.230183 0.1606,2.783387 0.1606,5.673787 0,5.147555 -0.0128,5.270218 -0.62717,5.984402 -0.82417,0.958152 -2.24201,1.002841 -3.20205,0.100925 -0.60064,-0.564269 -0.6687,-0.831422 -0.6687,-2.624984 v -1.996781 l -6.03244,6.011651 c -5.21586,5.197873 -6.13812,6.008824 -6.81303,5.990763 -0.42931,-0.01149 -0.9319,-0.08178 -1.11686,-0.156196 z" id="path1"/>
	</g>
</svg>
